<svg xmlns="http://www.w3.org/2000/svg" id="svg10" width="288" height="288" data-adreal-did="1681939383381650" version="1.1" viewBox="0 0 28.8 28.8"><defs id="defs1"><style id="current-color-scheme" type="text/css">.ColorScheme-Text{color:#fcfcfc}</style></defs><path id="path2" fill="currentColor" fill-opacity="1" fill-rule="evenodd" stroke="none" d="M7.2848959 4.4398705 16.66094 9.6863536l3.005439-5.1982344ZM10.25765 19.031074l-2.722171 5.330531H19.73739Z" class="ColorScheme-Text" opacity="1" style="stroke-width:.376481"/><path id="path3" fill="currentColor" fill-opacity=".75" fill-rule="evenodd" stroke="none" d="m7.2849926 4.4398182 9.3760014 5.2465196h-6.440398L7.5368596 14.325246l2.7207334 4.705788-2.7221565 5.329053-5.8854367-10.177139 5.6349928-9.7445525" class="ColorScheme-Text" opacity="1" style="stroke-width:.376481"/><path id="path4" fill="currentColor" fill-opacity="1" fill-rule="evenodd" stroke="none" d="m10.220596 9.6863378 9.445727-5.1981384-3.005329 5.1981384ZM1.6499998 14.182948l8.5705962-4.4966102-2.6837364 4.6389082Z" class="ColorScheme-Text" opacity="1" style="stroke-width:.376481"/><path id="path5" fill="currentColor" fill-opacity="1" fill-rule="evenodd" stroke="none" d="M10.220596 9.6863378 7.2849926 4.4398182l.251867 9.8882738Z" class="ColorScheme-Text" opacity="1" style="stroke-width:.376481"/><path id="path7" fill="currentColor" fill-opacity="1" fill-rule="evenodd" stroke="none" d="m7.5368596 14.326669-4.4966103 2.248305 4.4966103 7.786535z" class="ColorScheme-Text" opacity="1" style="stroke-width:.376481"/><path id="path8" fill="currentColor" fill-opacity="1" fill-rule="evenodd" stroke="none" d="m3.0416723 16.576397 7.2144977 2.454637-2.7193104-4.704365Z" class="ColorScheme-Text" opacity="1" style="stroke-width:.376481"/><ellipse id="circle8" cx="25.123434" cy="16.873768" fill="currentColor" fill-opacity="1" fill-rule="evenodd" stroke="none" class="ColorScheme-Text" opacity="1" rx="2.0265667" ry="2.022846" style="stroke-width:.376481"/><ellipse id="circle9" cx="20.848145" cy="12.160113" fill="currentColor" fill-opacity="1" fill-rule="evenodd" stroke="none" class="ColorScheme-Text" opacity="1" rx="1.5385926" ry="1.5357678" style="stroke-width:.376481"/><ellipse id="circle10" cx="22.95532" cy="6.8438072" fill="currentColor" fill-opacity="1" fill-rule="evenodd" stroke="none" class="ColorScheme-Text" opacity="1" rx=".79230404" ry=".79084951" style="stroke-width:.376481"/><path id="path18" fill="currentColor" fill-opacity=".75" fill-rule="evenodd" stroke="none" d="m10.257593 19.031034 9.479879 5.330475 3.08217-5.330475z" class="ColorScheme-Text" opacity="1" style="stroke-width:.376481"/></svg>